<svg width="160" height="47" viewBox="0 0 160 47" fill="none" xmlns="http://www.w3.org/2000/svg">
<path d="M160 29.305V29.9519C157.813 31.5692 156.462 32.6042 153.567 32.6042C151.251 32.6042 148.549 31.2457 147.648 29.0463C145.654 31.3104 142.823 32.6042 139.156 32.6042C134.652 32.6042 131.436 30.5341 131.436 25.6823C131.436 18.9545 143.209 16.2375 147.326 11.7092V9.63905C147.326 7.43957 147.648 1.74679 144.303 1.74679C142.437 1.74679 141.15 4.01097 141.15 5.69292V5.69292C141.15 7.62545 143.104 9.9458 141.91 11.4653C140.685 13.0242 138.968 14.1027 136.776 14.1027C134.073 14.1027 132.594 11.7092 132.594 9.18622C132.594 2.71715 139.671 0.194214 145.075 0.194214C151.637 0.194214 156.719 3.88159 156.719 10.8035V25.6823C156.719 26.9115 156.912 29.6932 158.713 29.6932C159.164 29.6932 159.614 29.5638 160 29.305ZM147.326 27.6878V13.9733C144.882 16.2375 140.893 19.0192 140.893 22.7713C140.893 25.4883 141.536 28.3347 144.817 28.3347C145.847 28.3347 146.683 28.0759 147.326 27.6878Z" fill="white"/>
<path d="M113.189 32.6042C108.364 32.6042 100.837 30.4048 100.837 24.3238C100.837 21.4775 102.445 19.0839 105.469 19.0839C106.851 19.0839 108.013 19.6883 108.906 20.6015C110.439 22.169 108.171 24.8482 108.171 27.0408V27.0408C108.171 29.6932 110.873 31.0517 113.189 31.0517C115.955 31.0517 118.979 29.6932 118.979 26.4586C118.979 19.7955 102.124 20.313 102.124 9.38029C102.124 2.91122 109.522 0.194214 114.926 0.194214C119.751 0.194214 126.764 2.32901 126.764 8.28055C126.764 10.9329 125.155 12.6148 122.518 12.6148C121.157 12.6148 120.009 12.1558 119.106 11.3782C117.712 10.1789 119.429 7.72524 119.429 5.88699V5.88699C119.429 3.29937 117.049 1.74679 114.669 1.74679C111.838 1.74679 109.715 3.68751 109.715 6.5339C109.715 13.0677 127.407 12.8089 127.407 23.4829C127.407 30.5988 118.786 32.6042 113.189 32.6042Z" fill="white"/>
<path d="M102.576 27.0408V28.4065C100.389 30.0238 97.93 32.6042 91.7486 32.6042C89.4326 32.6042 86.7306 31.2457 85.8299 29.0463C83.8355 31.3104 81.0048 32.6042 77.3378 32.6042C72.8344 32.6042 69.6177 30.5341 69.6177 25.6823C69.6177 18.9545 81.3908 16.2375 85.5082 11.7092V9.63905C85.5082 7.43957 85.8299 1.74679 82.4845 1.74679C80.6188 1.74679 79.3321 4.01097 79.3321 5.69292V5.69292C79.3321 7.62545 81.2855 9.9458 80.0914 11.4653C78.8664 13.0242 77.1503 14.1027 74.9574 14.1027C72.2554 14.1027 70.7757 11.7092 70.7757 9.18622C70.7757 2.71715 77.8524 0.194214 83.2565 0.194214C89.8186 0.194214 94.901 3.88159 94.901 10.8035V25.6823C94.901 26.9115 95.094 29.6932 96.8954 29.6932C98.6967 29.6932 102.19 27.2996 102.576 27.0408ZM85.5082 27.6878V13.9733C83.0635 16.2375 79.0748 19.0192 79.0748 22.7713C79.0748 25.4883 79.7181 28.3347 82.9992 28.3347C84.0285 28.3347 84.8649 28.0759 85.5082 27.6878Z" fill="white"/>
<path d="M71.1238 27.0408V28.4065C68.9364 30.0238 66.4774 32.6042 60.4871 32.6042C58.1711 32.6042 55.4691 31.2457 54.5684 29.0463C52.574 31.3104 49.7433 32.6042 46.0763 32.6042C41.5729 32.6042 38.3562 30.5341 38.3562 25.6823C38.3562 18.9545 50.1294 16.2375 54.2467 11.7092V9.63905C54.2467 7.43957 54.5684 1.74679 51.223 1.74679C49.3573 1.74679 48.0707 4.01097 48.0707 5.69292V5.69292C48.0707 7.62545 50.024 9.9458 48.8299 11.4653C47.605 13.0242 45.8888 14.1027 43.6959 14.1027C40.9939 14.1027 39.5142 11.7092 39.5142 9.18622C39.5142 2.71715 46.591 0.194214 51.995 0.194214C58.5571 0.194214 63.6395 3.88159 63.6395 10.8035V25.6823C63.6395 26.9115 63.8325 29.6932 65.6339 29.6932C67.4352 29.6932 70.7378 27.2996 71.1238 27.0408ZM54.2467 27.6878V13.9733C51.802 16.2375 47.8133 19.0192 47.8133 22.7713C47.8133 25.4883 48.4567 28.3347 51.7377 28.3347C52.767 28.3347 53.6034 28.0759 54.2467 27.6878Z" fill="white"/>
<path d="M3.60271 38.2021V13.9085C3.60271 13.0108 3.52263 12.2089 3.36898 11.4702C2.73911 8.44226 3.89098 4.90156 6.78993 3.82384C7.4886 3.5641 8.17357 3.26857 8.89599 2.92111C10.7666 2.0214 12.9955 3.29357 12.9955 5.36933V5.36933C15.1829 2.84639 18.0779 0 20.2009 0C29.1434 0 34.0328 7.37474 34.0328 15.7198C34.0328 24.4531 28.6287 33.0641 19.3002 33.0641C16.4052 33.0641 14.9255 32.1513 12.9955 31.4397V38.2021C12.9955 38.9783 13.0218 39.8337 13.1108 40.7041C13.3178 42.7265 10.9639 47 8.93093 47H7.60294C5.56998 47 3.25047 42.7439 3.47442 40.7233C3.57162 39.8463 3.60271 38.984 3.60271 38.2021ZM12.9955 6.14561V22.5124C12.9955 25.8763 13.8318 30.9221 18.1422 30.9221C23.482 30.9221 25.1546 24.1296 25.1546 19.86C25.1546 13.1969 22.7611 5.69278 14.1535 5.69278C13.8318 5.69278 13.3815 5.88685 12.9955 6.14561Z" fill="white"/>
<path fill-rule="evenodd" clip-rule="evenodd" d="M36.8054 25.9715C33.2934 29.2277 27.5882 33.064 20.0139 33.064V31.5976C27.0935 31.5976 32.468 28.0376 35.8363 24.9146C36.3871 24.4039 36.9326 23.875 37.4784 23.3459C38.5857 22.2723 39.732 21.2852 40.889 20.3583C42.6489 18.9483 44.5696 17.713 47.0422 17.2349L47.3122 18.6466C45.1385 19.0669 43.3887 20.0757 41.7421 21.3949C40.6359 22.2811 39.6138 23.2728 38.5385 24.316C37.9814 24.8565 37.4101 25.4108 36.8054 25.9715Z" fill="white"/>
<path fill-rule="evenodd" clip-rule="evenodd" d="M124.929 30.219C122.718 31.2808 119.948 32.0397 116.213 32.3145L116.108 30.8807C119.7 30.6165 122.291 29.8928 124.313 28.9218C126.334 27.9514 127.823 26.7167 129.2 25.3759C129.69 24.8993 130.168 24.4052 130.652 23.9043C132.88 21.6006 135.246 19.1544 139.509 17.6232L139.99 18.977C136.064 20.3871 133.949 22.5677 131.737 24.849C131.235 25.3663 130.729 25.8888 130.195 26.4086C128.757 27.8081 127.142 29.1566 124.929 30.219Z" fill="white"/>
</svg>
